<svg xmlns="http://www.w3.org/2000/svg" viewBox="0 0 100 100" style="stroke-width: 3;">

	<rect width="100" height="100" fill="#086764" rx="10" ry="10" />
	<circle cx="30" cy="60" r="1" fill="white" stroke="#67080b" />
	<line x1=" 29" y1="55" x2="31" y2="55" stroke="#67080b" />
	<line x1=" 29" y1="55" x2="31" y2="55" stroke="#67080b" transform=" rotate(45,30,60)" />
	<line x1="29" y1="55" x2="31" y2="55" stroke="#67080b" transform=" rotate(90,30,60)" />
	<line x1="29" y1="55" x2="31" y2="55" stroke="#67080b" transform=" rotate(135,30,60)" />
	<line x1="29" y1="55" x2="31" y2="55" stroke="#67080b" transform=" rotate(180,30,60)" />
	<line x1="29" y1="55" x2="31" y2="55" stroke="#67080b" transform=" rotate(225,30,60)" />
	<line x1="29" y1="55" x2="31" y2="55" stroke="#67080b" transform=" rotate(270,30,60)" />
	<line x1="29" y1="55" x2="31" y2="55" stroke="#67080b" transform=" rotate(315,30,60)" />


	<line x1="30" y1="55" x2="30" y2="0" stroke="#67080b" />
	<line x1=" 30" y1="0" x2="30" y2="10" stroke="#67080b" transform=" rotate(22.5,30,0)" />
	<line x1="30" y1="0" x2="30" y2="10" stroke="#67080b" transform=" rotate(337.5,30,0)" />

	<line x1="30" y1="65" x2="30" y2="100" stroke="#67080b" />
	<line x1=" 30" y1="100" x2="30" y2="90" stroke="#67080b" transform=" rotate(22.5,30,100)" />
	<line x1="30" y1="100" x2="30" y2="90" stroke="#67080b" transform=" rotate(337.5,30,100)" />

	<line x1="25" y1="60" x2="0" y2="60" stroke="#67080b" />
	<line x1=" 0" y1="60" x2="10" y2="60" stroke="#67080b" transform=" rotate(22.5,0,60)" />
	<line x1="0" y1="60" x2="10" y2="60" stroke="#67080b" transform=" rotate(337.5,0,60)" />
	"
	<line x1="35" y1="60" x2="100" y2="60" stroke="#67080b" />
	<line x1=" 100" y1="60" x2="90" y2="60" stroke="#67080b" transform=" rotate(22.5,100,60)" />
	<line x1="100" y1="60" x2="90" y2="60" stroke="#67080b" transform=" rotate(337.5,100,60)" />

	<g transform="rotate(45,30,60)">
		<line x1="35" y1="60" x2="100" y2="60" stroke="#67080b" />
		<line x1=" 35" y1="60" x2="40" y2="60" stroke="#67080b" transform=" rotate(22.5,35,60)" />
		<line x1="35" y1="60" x2="40" y2="60" stroke="#67080b" transform=" rotate(337.5,35,60)" />
	</g>
	<g transform="rotate(135,30,60)">
		<line x1="35" y1="60" x2="100" y2="60" stroke="#67080b" />
		<line x1=" 35" y1="60" x2="40" y2="60" stroke="#67080b" transform=" rotate(22.5,35,60)" />
		<line x1="35" y1="60" x2="40" y2="60" stroke="#67080b" transform=" rotate(337.5,35,60)" />
	</g>
	<g transform="rotate(225,30,60)">
		<line x1="35" y1="60" x2="100" y2="60" stroke="#67080b" />
		<line x1=" 35" y1="60" x2="40" y2="60" stroke="#67080b" transform=" rotate(22.5,35,60)" />
		<line x1="35" y1="60" x2="40" y2="60" stroke="#67080b" transform=" rotate(337.5,35,60)" />
	</g>
	<g transform="rotate(315,30,60)">
		<line x1="35" y1="60" x2="100" y2="60" stroke="#67080b" />
		<line x1=" 35" y1="60" x2="40" y2="60" stroke="#67080b" transform=" rotate(22.5,35,60)" />
		<line x1="35" y1="60" x2="40" y2="60" stroke="#67080b" transform=" rotate(337.5,35,60)" />
	</g>




</svg>